<svg width="36" height="36" viewBox="0 0 36 36" fill="none" xmlns="http://www.w3.org/2000/svg">
<g clip-path="url(#clip0_22_18)">
<path fill-rule="evenodd" clip-rule="evenodd" d="M23.7891 22.4815C17.2091 22.4815 11.8946 17.1459 11.8946 10.587C11.8946 17.1459 6.55888 22.4815 0 22.4815C6.55888 22.4815 11.8946 27.7961 11.8946 34.355C11.8946 27.7961 17.2091 22.4815 23.7891 22.4815Z" fill="#3987FB"/>
<path fill-rule="evenodd" clip-rule="evenodd" d="M36 28.6186C32.3937 28.6186 29.4833 25.6872 29.4833 22.1019C29.4833 25.6872 26.5518 28.6186 22.9666 28.6186C26.5518 28.6186 29.4833 31.529 29.4833 35.1353C29.4833 31.529 32.3937 28.6186 36 28.6186ZM32.246 8.79439C27.8594 8.79439 24.3163 5.25133 24.3163 0.864685C24.3163 5.25133 20.7733 8.79439 16.3866 8.79439C20.7733 8.79439 24.3163 12.3374 24.3163 16.7241C24.3163 12.3374 27.8594 8.79439 32.246 8.79439Z" fill="#3987FB"/>
</g>
<defs>
<clipPath id="clip0_22_18">
<rect width="36" height="36" fill="white"/>
</clipPath>
</defs>
</svg>
