<svg xmlns="http://www.w3.org/2000/svg" version="1.1" xmlns:xlink="http://www.w3.org/1999/xlink" width="512" height="512" x="0" y="0" viewBox="0 0 512 512" style="enable-background:new 0 0 512 512" xml:space="preserve"><g><linearGradient id="a"><stop offset="0" stop-color="#ffa1ae"></stop><stop offset="1" stop-color="#ff4565"></stop></linearGradient><linearGradient xlink:href="#a" id="d" x1="144.136" x2="355.312" y1="176.577" y2="387.753" gradientUnits="userSpaceOnUse"></linearGradient><linearGradient id="b"><stop offset="0" stop-color="#fe0364" stop-opacity="0"></stop><stop offset=".234" stop-color="#f90362" stop-opacity=".234"></stop><stop offset=".517" stop-color="#ea035b" stop-opacity=".517"></stop><stop offset=".824" stop-color="#d20250" stop-opacity=".824"></stop><stop offset="1" stop-color="#c00148"></stop></linearGradient><linearGradient xlink:href="#b" id="e" x1="304.107" x2="378.959" y1="372.9" y2="463.435" gradientUnits="userSpaceOnUse"></linearGradient><linearGradient xlink:href="#b" id="f" x1="249.217" x2="235.673" y1="369.262" y2="516.113" gradientUnits="userSpaceOnUse"></linearGradient><linearGradient xlink:href="#b" id="g" x1="308.988" x2="443.008" y1="231.39" y2="170.083" gradientUnits="userSpaceOnUse"></linearGradient><linearGradient xlink:href="#b" id="h" x1="418.277" x2="254.317" y1="479.425" y2="358.237" gradientUnits="userSpaceOnUse"></linearGradient><linearGradient id="i" x1="206.504" x2="303.454" y1="298.818" y2="411.451" gradientUnits="userSpaceOnUse"><stop offset="0" stop-color="#fef0ae"></stop><stop offset="1" stop-color="#fac600"></stop></linearGradient><linearGradient id="c"><stop offset="0" stop-color="#fe9738" stop-opacity="0"></stop><stop offset="1" stop-color="#fe9738"></stop></linearGradient><linearGradient xlink:href="#c" id="j" x1="310.909" x2="343.701" y1="315.617" y2="304.211" gradientUnits="userSpaceOnUse"></linearGradient><linearGradient xlink:href="#c" id="k" x1="222.535" x2="198.298" y1="419.051" y2="458.497" gradientUnits="userSpaceOnUse"></linearGradient><linearGradient xlink:href="#c" id="l" x1="284.866" x2="303.876" y1="423.033" y2="463.429" gradientUnits="userSpaceOnUse"></linearGradient><linearGradient xlink:href="#a" id="m" x1="50.799" x2="94.997" y1="125.663" y2="162.733" gradientUnits="userSpaceOnUse"></linearGradient><linearGradient xlink:href="#b" id="n" x1="62.573" x2="52.592" y1="153.411" y2="179.431" gradientUnits="userSpaceOnUse"></linearGradient><linearGradient xlink:href="#b" id="o" x1="62.317" x2="94.752" y1="140.719" y2="150.343" gradientUnits="userSpaceOnUse"></linearGradient><path fill="url(#d)" d="M451.949 250.75c-.144.311-.289.621-.435.931-5.698 12.125-23.926 7.311-22.803-6.039 2.052-24.399-.966-49.619-9.757-74.177C390.418 91.751 294.609.986 209.768.001c-9.06-.105-14.262 10.267-8.915 17.581 7.129 9.75 12.918 20.741 17.017 32.797 13.454 39.575 5.172 81.709-18.518 113.013-9.876 13.05-30.846 6.605-31.191-9.757l-.007-.356c-.139-8.674 1.284-17.002 4.014-24.715 1.204-3.401-1.949-6.748-5.403-5.707-48.097 14.497-84.67 85.273-84.67 135.756 0 3.687.205 7.326.586 10.912a61.92 61.92 0 0 0 3.549 20.232l.257.722a179.065 179.065 0 0 0 2.328 6.109 216.113 216.113 0 0 1-28.745-45.801c-3.561-7.668-14.832-6.146-16.216 2.195-2.466 14.854-3.757 29.342-3.757 43.115C40.097 415.337 136.76 512 256 512s215.903-96.663 215.903-215.903c0-13.774-1.291-28.263-3.758-43.119-1.381-8.321-12.645-9.88-16.196-2.228z" opacity="1" data-original="url(#d)"></path><path fill="url(#e)" d="M82.096 258.613c0 3.687.205 7.326.586 10.912a61.924 61.924 0 0 0 3.549 20.232l.257.721a179.065 179.065 0 0 0 2.328 6.109 216.113 216.113 0 0 1-28.745-45.801c-3.561-7.668-14.832-6.146-16.216 2.195-2.466 14.854-3.757 29.342-3.757 43.115C40.097 415.337 136.76 512 256 512s215.903-96.663 215.903-215.903c0-13.774-1.291-28.263-3.758-43.119-1.382-8.321-12.646-9.88-16.197-2.228-.144.311-.289.621-.435.931-5.698 12.125-23.926 7.311-22.803-6.039a175.37 175.37 0 0 0 .588-17.058H85.787c-2.406 10.387-3.691 20.564-3.691 30.029z" opacity="1" data-original="url(#e)"></path><path fill="url(#f)" d="M82.096 258.613c0 3.687.205 7.326.586 10.912a61.924 61.924 0 0 0 3.549 20.232l.257.721a179.065 179.065 0 0 0 2.328 6.109 216.113 216.113 0 0 1-28.745-45.801c-3.561-7.668-14.832-6.146-16.216 2.195-2.466 14.854-3.757 29.342-3.757 43.115C40.097 415.337 136.76 512 256 512s215.903-96.663 215.903-215.903c0-13.774-1.291-28.263-3.758-43.119-1.382-8.321-12.646-9.88-16.197-2.228-.144.311-.289.621-.435.931-5.698 12.125-23.926 7.311-22.803-6.039a175.37 175.37 0 0 0 .588-17.058H85.787c-2.406 10.387-3.691 20.564-3.691 30.029z" opacity="1" data-original="url(#f)"></path><path fill="url(#g)" d="M471.903 296.097c0-13.774-1.291-28.263-3.758-43.119-1.382-8.321-12.646-9.88-16.197-2.228-.144.311-.289.621-.435.931-5.698 12.125-23.926 7.311-22.803-6.039 2.052-24.399-.966-49.619-9.757-74.177C390.418 91.751 294.609.986 209.768.001c-9.06-.105-14.262 10.267-8.915 17.582 7.129 9.75 12.918 20.741 17.017 32.797 13.454 39.575 5.172 81.709-18.518 113.013-4.918 6.498-12.586 8.16-19.089 6.173v328.762C203.831 507.159 229.349 512 256 512c119.24 0 215.903-96.663 215.903-215.903z" opacity="1" data-original="url(#g)"></path><path fill="url(#h)" d="M455.45 378.879 315.096 238.525 171.841 444.479l66.828 66.828c5.718.454 11.496.693 17.331.693 89.911 0 166.974-54.965 199.45-133.121z" opacity="1" data-original="url(#h)"></path><path fill="url(#i)" d="M365.38 332.911c-.081.174-.161.347-.243.52-3.18 6.768-13.355 4.081-12.729-3.371 1.145-13.62-.539-27.697-5.447-41.406-15.929-44.497-69.41-95.163-116.769-95.713-5.058-.059-7.961 5.731-4.976 9.814a68.11 68.11 0 0 1 9.499 18.308c7.51 22.091 2.887 45.611-10.337 63.085-5.513 7.285-17.218 3.687-17.411-5.447l-.004-.199a39.358 39.358 0 0 1 2.241-13.796c.672-1.898-1.088-3.767-3.016-3.186-26.848 8.093-47.263 47.6-47.263 75.78 0 2.058.115 4.089.327 6.091a34.564 34.564 0 0 0 1.981 11.293l.143.403c.412 1.151.85 2.284 1.299 3.41a120.667 120.667 0 0 1-16.046-25.566c-1.988-4.281-8.279-3.43-9.052 1.225-1.377 8.292-2.097 16.379-2.097 24.067 0 66.561 53.958 120.519 120.519 120.519s120.519-53.958 120.519-120.519c0-7.689-.721-15.777-2.098-24.069-.77-4.644-7.058-5.514-9.04-1.243z" opacity="1" data-original="url(#i)"></path><path fill="url(#j)" d="M376.519 358.224c0-7.689-.721-15.777-2.098-24.069-.771-4.645-7.059-5.515-9.041-1.244-.081.174-.161.347-.243.52-3.18 6.768-13.355 4.081-12.729-3.371 1.145-13.62-.539-27.697-5.447-41.406-15.929-44.497-69.41-95.163-116.769-95.713-5.058-.059-7.961 5.731-4.976 9.814a68.11 68.11 0 0 1 9.499 18.308c7.51 22.091 2.887 45.611-10.337 63.085-2.745 3.627-7.025 4.555-10.655 3.446v183.517c13.156 4.929 27.4 7.632 42.277 7.632 66.561 0 120.519-53.959 120.519-120.519z" opacity="1" data-original="url(#j)"></path><path fill="url(#k)" d="M158.925 337.3c0 2.058.115 4.089.327 6.091a34.564 34.564 0 0 0 1.981 11.293l.143.403c.412 1.151.85 2.284 1.299 3.41a120.667 120.667 0 0 1-16.046-25.566c-1.988-4.281-8.279-3.43-9.052 1.225-1.377 8.292-2.097 16.379-2.097 24.067 0 66.561 53.958 120.519 120.519 120.519s120.519-53.958 120.519-120.519c0-7.689-.721-15.777-2.098-24.069-.771-4.645-7.059-5.515-9.041-1.244-.081.174-.161.347-.243.52-3.18 6.768-13.355 4.081-12.729-3.371.265-3.153.371-6.33.328-9.522H160.986c-1.343 5.799-2.061 11.48-2.061 16.763z" opacity="1" data-original="url(#k)"></path><path fill="url(#l)" d="M158.925 337.3c0 2.058.115 4.089.327 6.091a34.564 34.564 0 0 0 1.981 11.293l.143.403c.412 1.151.85 2.284 1.299 3.41a120.667 120.667 0 0 1-16.046-25.566c-1.988-4.281-8.279-3.43-9.052 1.225-1.377 8.292-2.097 16.379-2.097 24.067 0 66.561 53.958 120.519 120.519 120.519s120.519-53.958 120.519-120.519c0-7.689-.721-15.777-2.098-24.069-.771-4.645-7.059-5.515-9.041-1.244-.081.174-.161.347-.243.52-3.18 6.768-13.355 4.081-12.729-3.371.265-3.153.371-6.33.328-9.522H160.986c-1.343 5.799-2.061 11.48-2.061 16.763z" opacity="1" data-original="url(#l)"></path><path fill="url(#m)" d="M63.178 179.324c15.797 3.24 28.385-13.006 22.079-27.848-4.713-11.092-3.973-24.258 3.136-35.09l.035-.054c1.797-2.728.362-6.4-2.825-7.118-14.726-3.317-30.614 2.559-39.386 15.924-11.304 17.224-6.505 40.351 10.719 51.656 1.929 1.264 4.034 2.077 6.242 2.53z" opacity="1" data-original="url(#m)"></path><path fill="url(#n)" d="M63.178 179.324c15.797 3.24 28.385-13.006 22.079-27.848-4.713-11.092-3.973-24.258 3.136-35.09l.035-.054c1.797-2.728.362-6.4-2.825-7.118-14.726-3.317-30.614 2.559-39.386 15.924-11.304 17.224-6.505 40.351 10.719 51.656 1.929 1.264 4.034 2.077 6.242 2.53z" opacity="1" data-original="url(#n)"></path><path fill="url(#o)" d="M63.178 179.324c15.797 3.24 28.385-13.006 22.079-27.848-4.713-11.092-3.973-24.258 3.136-35.09l.035-.054c1.797-2.728.362-6.4-2.825-7.118-14.726-3.317-30.614 2.559-39.386 15.924-11.304 17.224-6.505 40.351 10.719 51.656 1.929 1.264 4.034 2.077 6.242 2.53z" opacity="1" data-original="url(#o)"></path></g></svg>